<svg height="100%" width="100%" viewBox="0,0,2048,2048" focusable="false"><path type="path" class="OfficeIconColors_HighContrast" d="M 1501 1163 q 0 85 -33 154 q -33 69 -92 117 q -59 49 -140 75 q -81 27 -177 27 h -419 v -1280 h 404 q 93 0 167 21 q 73 21 124 59 q 51 39 79 93 q 27 55 27 122 q 0 52 -17 99 q -17 47 -47 85 q -31 39 -73 68 q -43 29 -93 44 v 4 q 68 8 122 34 q 54 26 92 66 q 37 41 57 95 q 19 54 19 117 m -298 -595 q 0 -75 -56 -117 q -57 -41 -169 -41 h -119 v 354 h 117 q 108 0 168 -50 q 59 -49 59 -146 m 61 597 q 0 -91 -65 -143 q -65 -52 -199 -52 h -143 v 398 h 162 q 57 0 103 -15 q 45 -14 77 -41 q 31 -26 48 -64 q 17 -37 17 -83 z"></path><path type="path" class="OfficeIconColors_m22" d="M 1501 1163 q 0 85 -33 154 q -33 69 -92 117 q -59 49 -140 75 q -81 27 -177 27 h -419 v -1280 h 404 q 93 0 167 21 q 73 21 124 59 q 51 39 79 93 q 27 55 27 122 q 0 52 -17 99 q -17 47 -47 85 q -31 39 -73 68 q -43 29 -93 44 v 4 q 68 8 122 34 q 54 26 92 66 q 37 41 57 95 q 19 54 19 117 m -298 -595 q 0 -75 -56 -117 q -57 -41 -169 -41 h -119 v 354 h 117 q 108 0 168 -50 q 59 -49 59 -146 m 61 597 q 0 -91 -65 -143 q -65 -52 -199 -52 h -143 v 398 h 162 q 57 0 103 -15 q 45 -14 77 -41 q 31 -26 48 -64 q 17 -37 17 -83 z"></path></svg>
