<svg height="100%" width="100%" viewBox="0,0,2048,2048" focusable="false"><path type="path" class="OfficeIconColors_HighContrast" d="M 1920 256 h -1280 v -128 h 1280 m 0 896 h -1280 v -128 h 1280 m 0 896 h -1280 v -128 h 1280 m -1536 -1280 h -384 v -384 h 384 m 0 1152 h -384 v -384 h 384 m 0 1152 h -384 v -384 h 384 z"></path><path type="path" class="OfficeIconColors_m22" d="M 1920 256 h -1280 v -128 h 1280 m 0 896 h -1280 v -128 h 1280 m 0 896 h -1280 v -128 h 1280 z"></path><path type="path" class="OfficeIconColors_m24" d="M 384 384 h -384 v -384 h 384 m 0 1152 h -384 v -384 h 384 m 0 1152 h -384 v -384 h 384 z"></path></svg>
