<svg height="100%" width="100%" viewBox="0,0,2048,2048" focusable="false"><path type="path" class="OfficeIconColors_HighContrast" d="M 1144 961 l -191 191 h -605 l -178 512 h -170 l 629 -1664 h 154 m 221 1024 l -300 -832 l -304 832 m 1648 209 l -815 815 l -452 -453 l 814 -814 m 0 181 l -400 400 l 272 272 l 400 -400 m -633 633 l 142 -143 l -272 -271 l -142 142 z"></path><path type="path" class="OfficeIconColors_m22" d="M 1144 961 l -191 191 h -605 l -178 512 h -170 l 629 -1664 h 154 m 221 1024 l -300 -832 l -304 832 z"></path><path type="path" class="OfficeIconColors_m20" d="M 1130 1353 l 465 -482 l 362 363 l -473 473 z"></path><path type="path" class="OfficeIconColors_m221" d="M 871 1595 l 259 -242 l 362 362 l -258 242 z"></path><path type="path" class="OfficeIconColors_m220" d="M 2048 1233 l -815 815 l -452 -453 l 814 -814 m 0 181 l -400 400 l 272 272 l 400 -400 m -633 633 l 142 -143 l -272 -271 l -142 142 z"></path></svg>
