<svg height="100%" width="100%" viewBox="0,0,2048,2048" focusable="false"><path type="path" class="OfficeIconColors_HighContrast" d="M 2048 896 v 1152 h -1280 v -1664 h 768 m 0 512 h 331 l -331 -331 m 384 459 h -512 v -512 h -512 v 1408 h 1024 m -1792 -1792 v 1536 h 512 v 128 h -640 v -1792 h 768 l 254 256 h -182 l -128 -128 m 952 1280 h -512 v -128 h 512 m 0 384 h -512 v -128 h 512 z"></path><path type="path" class="OfficeIconColors_m20" d="M 832 1984 v -1536 h 640 l 512 482 v 1054 m -1344 -256 h -576 v -1664 h 640 l 204 192 h -268 z"></path><path type="path" class="OfficeIconColors_m22" d="M 2048 896 v 1152 h -1280 v -1664 h 768 m 0 512 h 331 l -331 -331 m 384 459 h -512 v -512 h -512 v 1408 h 1024 m -1792 -1792 v 1536 h 512 v 128 h -640 v -1792 h 768 l 254 256 h -182 l -128 -128 z"></path><path type="path" class="OfficeIconColors_m23" d="M 1664 1408 h -512 v -128 h 512 m 0 384 h -512 v -128 h 512 z"></path></svg>
