<svg height="100%" width="100%" viewBox="0,0,2048,2048" focusable="false"><path type="path" class="OfficeIconColors_HighContrast" d="M 1408 1536 q 53 0 100 20 q 46 20 81 54 q 35 35 55 82 q 20 47 20 100 q 0 53 -20 100 q -20 47 -55 81 q -35 35 -81 55 q -47 20 -100 20 q -53 0 -100 -20 q -47 -20 -81 -55 q -35 -34 -55 -81 q -20 -47 -20 -100 q 0 -37 11 -72 q 10 -35 29 -65 q 18 -29 44 -53 q 26 -23 58 -39 l -270 -539 l -270 539 q 31 16 58 39 q 26 24 45 53 q 18 30 29 65 q 10 35 10 72 q 0 53 -20 100 q -20 47 -55 81 q -35 35 -81 55 q -47 20 -100 20 q -53 0 -100 -20 q -47 -20 -81 -55 q -35 -34 -55 -81 q -20 -47 -20 -100 q 0 -53 20 -100 q 20 -47 55 -82 q 34 -34 81 -54 q 47 -20 100 -20 l 320 -640 l -192 -384 l -128 -512 l 384 768 l 384 -768 l -128 512 l -192 384 m -448 1024 q 27 0 50 -10 q 23 -10 41 -28 q 17 -17 27 -40 q 10 -23 10 -50 q 0 -27 -10 -50 q -10 -23 -27 -41 q -18 -17 -41 -27 q -23 -10 -50 -10 q -27 0 -50 10 q -23 10 -40 27 q -18 18 -28 41 q -10 23 -10 50 q 0 27 10 50 q 10 23 28 40 q 17 18 40 28 q 23 10 50 10 m 768 0 q 27 0 50 -10 q 23 -10 41 -28 q 17 -17 27 -40 q 10 -23 10 -50 q 0 -27 -10 -50 q -10 -23 -27 -41 q -18 -17 -41 -27 q -23 -10 -50 -10 q -27 0 -50 10 q -23 10 -40 27 q -18 18 -28 41 q -10 23 -10 50 q 0 27 10 50 q 10 23 28 40 q 17 18 40 28 q 23 10 50 10 z"></path><path type="path" class="OfficeIconColors_m22" d="M 1315 1605 l -291 -581 l -280 560 l -104 -48 l 320 -640 l -192 -384 l -128 -512 l 384 768 l 384 -768 l -128 512 l -192 384 l 328 657 z"></path><path type="path" class="OfficeIconColors_m24" d="M 640 1536 q 53 0 100 20 q 46 20 81 54 q 35 35 55 82 q 20 47 20 100 q 0 53 -20 100 q -20 47 -55 81 q -35 35 -81 55 q -47 20 -100 20 q -53 0 -100 -20 q -47 -20 -81 -55 q -35 -34 -55 -81 q -20 -47 -20 -100 q 0 -53 20 -100 q 20 -47 55 -82 q 34 -34 81 -54 q 47 -20 100 -20 m 0 384 q 27 0 50 -10 q 23 -10 41 -28 q 17 -17 27 -40 q 10 -23 10 -50 q 0 -27 -10 -50 q -10 -23 -27 -41 q -18 -17 -41 -27 q -23 -10 -50 -10 q -27 0 -50 10 q -23 10 -40 27 q -18 18 -28 41 q -10 23 -10 50 q 0 27 10 50 q 10 23 28 40 q 17 18 40 28 q 23 10 50 10 m 768 -384 q 53 0 100 20 q 46 20 81 54 q 35 35 55 82 q 20 47 20 100 q 0 53 -20 100 q -20 47 -55 81 q -35 35 -81 55 q -47 20 -100 20 q -53 0 -100 -20 q -47 -20 -81 -55 q -35 -34 -55 -81 q -20 -47 -20 -100 q 0 -53 20 -100 q 20 -47 55 -82 q 34 -34 81 -54 q 47 -20 100 -20 m 0 384 q 27 0 50 -10 q 23 -10 41 -28 q 17 -17 27 -40 q 10 -23 10 -50 q 0 -27 -10 -50 q -10 -23 -27 -41 q -18 -17 -41 -27 q -23 -10 -50 -10 q -27 0 -50 10 q -23 10 -40 27 q -18 18 -28 41 q -10 23 -10 50 q 0 27 10 50 q 10 23 28 40 q 17 18 40 28 q 23 10 50 10 z"></path></svg>
