<svg height="100%" width="100%" viewBox="0,0,2048,2048" focusable="false"><path type="path" class="OfficeIconColors_HighContrast" d="M 1824 576 q 33 0 62 12 q 29 13 51 35 q 22 22 35 51 q 12 29 12 62 q 0 33 -12 62 q -13 29 -35 51 q -22 22 -51 34 q -29 13 -62 13 h -686 l -92 128 h 458 q 33 0 62 12 q 29 13 51 35 q 22 22 35 51 q 12 29 12 62 q 0 33 -12 62 q -13 29 -35 51 q -22 22 -51 34 q -29 13 -62 13 h -691 l -93 128 h 464 q 33 0 62 12 q 29 13 51 35 q 22 22 35 51 q 12 29 12 62 q 0 33 -12 62 q -13 29 -35 51 q -22 22 -51 34 q -29 13 -62 13 h -746 l -175 125 q -8 5 -17 5 q -9 0 -16 -4 l -115 85 q -3 2 -10 2 q -26 0 -44 -15 q -18 -15 -18 -33 v -3 l 42 -139 q -13 -10 -13 -25 q 0 -3 2 -9 l 97 -324 l 1022 -1402 q 10 -7 15 -9 q 4 -2 14 -2 q 8 0 30 10 q 22 10 53 27 q 30 17 66 40 q 35 23 70 49 q 34 26 64 53 q 30 28 49 55 q 5 7 8 13 q 3 6 3 11 q 0 6 -5 13 l -189 261 m -1226 1192 l 109 77 l 241 -172 l 912 -1255 l -263 -186 l -915 1254 z"></path><path type="path" class="OfficeIconColors_m20" d="M 102 1973 q -23 -3 -26 -17 l 46 -153 l -18 -14 l 96 -317 l 1015 -1393 l 8 -3 q 8 2 30 12 q 21 10 49 27 q 28 17 61 38 q 32 22 64 46 q 31 24 58 49 q 26 25 43 48 q 1 2 3 4 l -1013 1396 l -273 195 l -18 -11 z"></path><path type="path" class="OfficeIconColors_m2262" d="M 1824 576 q 33 0 62 12 q 29 13 51 35 q 22 22 35 51 q 12 29 12 62 q 0 33 -12 62 q -13 29 -35 51 q -22 22 -51 34 q -29 13 -62 13 h -686 l -92 128 h 458 q 33 0 62 12 q 29 13 51 35 q 22 22 35 51 q 12 29 12 62 q 0 33 -12 62 q -13 29 -35 51 q -22 22 -51 34 q -29 13 -62 13 h -691 l -93 128 h 464 q 33 0 62 12 q 29 13 51 35 q 22 22 35 51 q 12 29 12 62 q 0 33 -12 62 q -13 29 -35 51 q -22 22 -51 34 q -29 13 -62 13 h -746 l -175 125 q -8 5 -17 5 q -9 0 -16 -4 l -115 85 q -3 2 -10 2 q -26 0 -44 -15 q -18 -15 -18 -33 v -3 l 42 -139 q -13 -10 -13 -25 q 0 -3 2 -9 l 97 -324 l 1022 -1402 q 10 -7 15 -9 q 4 -2 14 -2 q 8 0 30 10 q 22 10 53 27 q 30 17 66 40 q 35 23 70 49 q 34 26 64 53 q 30 28 49 55 q 5 7 8 13 q 3 6 3 11 q 0 6 -5 13 l -189 261 m -1226 1192 l 109 77 l 241 -172 l 912 -1255 l -263 -186 l -915 1254 z"></path></svg>
