<svg height="100%" width="100%" viewBox="0,0,2048,2048" focusable="false"><path type="path" class="OfficeIconColors_HighContrast" d="M 1504 1408 l -156 -392 h -603 l -152 392 h -145 l 536 -1408 h 132 l 533 1408 m -602 -1236 h -4 l -254 725 h 515 m 744 639 v 512 h -2048 v -512 z"></path><path type="path" class="OfficeIconColors_m227" d="M 1984 1984 h -1920 v -384 h 1920 z"></path><path type="path" class="OfficeIconColors_m21" d="M 2048 1536 v 512 h -2048 v -512 m 1920 128 h -1792 v 256 h 1792 z"></path><path type="path" class="OfficeIconColors_DynamicColor" d="M 2048 1536 v 512 h -2048 v -512 z"></path><path type="path" class="OfficeIconColors_m22" d="M 1504 1408 l -156 -392 h -603 l -152 392 h -145 l 536 -1408 h 132 l 533 1408 m -602 -1236 h -4 l -254 725 h 515 z"></path></svg>
