<svg height="100%" width="100%" viewBox="0,0,2048,2048" focusable="false"><path type="path" class="OfficeIconColors_HighContrast" d="M 1998 110 q 25 25 37 56 q 12 32 12 64 q 0 33 -12 64 q -12 31 -37 56 l -369 369 l 124 124 q 26 26 41 68 q 15 43 15 88 q 0 38 -11 70 q -11 32 -32 52 l -171 167 q -25 29 -65 73 q -41 45 -92 98 q -52 53 -114 112 q -63 60 -132 119 q -69 60 -144 115 q -75 56 -152 103 l -896 -1024 q 154 -26 302 -78 q 63 -22 131 -52 q 68 -30 135 -70 q 67 -40 130 -90 q 63 -50 116 -112 l 161 -177 q 24 -24 55 -37 q 31 -12 65 -12 q 71 0 120 49 l 125 125 l 369 -369 q 50 -50 120 -50 q 34 0 65 13 q 31 13 55 37 m -606 1313 q 54 -54 97 -100 q 42 -45 68 -75 l -605 -626 q -73 79 -160 142 q -87 63 -176 111 q -89 48 -174 81 q -85 34 -155 54 l 82 95 m 1588 -797 q 8 -8 10 -16 q 2 -8 2 -13 q 0 -5 -2 -14 q -3 -8 -11 -16 l -48 -49 q -14 -12 -30 -12 q -18 0 -30 12 l -459 460 l -215 -215 q -12 -12 -30 -12 q -17 0 -29 12 l -80 80 l 612 632 l 77 -77 q 2 -2 4 -10 q 2 -7 2 -21 q 0 -27 -7 -45 q -8 -18 -11 -21 l -215 -215 z"></path><path type="path" class="OfficeIconColors_m20" d="M 1983 230 q 0 21 -7 40 q -8 20 -23 35 l -415 414 l 170 170 q 14 14 26 43 q 11 30 11 68 q 0 24 -6 44 q -6 21 -18 32 l -165 159 q -23 27 -57 65 q -35 39 -79 85 q -44 46 -97 98 q -53 52 -112 105 q -59 53 -123 105 q -65 53 -132 100 l -47 33 l -786 -898 l 97 -28 q 70 -20 152 -51 q 82 -31 166 -75 q 83 -44 164 -102 q 80 -58 147 -133 l 172 -188 q 14 -15 34 -23 q 19 -8 40 -8 q 44 0 75 31 l 170 169 l 414 -414 q 31 -31 75 -31 q 44 0 75 31 l 49 49 q 15 15 23 34 q 7 20 7 41 z"></path><path type="path" class="OfficeIconColors_m212" d="M 917 1832 l -665 -727 l 1138 345 z"></path><path type="path" class="OfficeIconColors_m211" d="M 1609 1272 q -21 25 -59 68 q -39 43 -91 97 q -53 55 -116 117 q -64 62 -136 124 q -73 62 -151 121 q -79 60 -160 109 l -896 -1024 q 157 -25 307 -79 q 64 -23 133 -54 q 69 -31 137 -72 q 67 -41 130 -93 q 63 -51 116 -115 l 90 92 q -73 81 -161 145 q -88 65 -178 114 q -91 50 -178 84 q -87 35 -158 55 l 82 95 l 1023 318 q 62 -62 108 -112 q 45 -50 71 -79 m -603 557 q 85 -59 167 -127 q 81 -68 153 -137 l -757 -236 z"></path><path type="path" class="OfficeIconColors_m22" d="M 1998 110 q 25 25 37 56 q 12 32 12 64 q 0 33 -12 64 q -12 31 -37 56 l -369 369 l 124 124 q 26 26 41 68 q 15 43 15 88 q 0 38 -11 69 q -11 32 -32 53 l -169 169 l -790 -816 l 168 -169 q 24 -24 55 -37 q 31 -12 65 -12 q 71 0 120 49 l 125 125 l 369 -369 q 50 -50 120 -50 q 34 0 65 13 q 31 13 55 37 m -41 198 q 8 -8 10 -16 q 2 -8 2 -13 q 0 -5 -2 -14 q -3 -8 -11 -16 l -48 -49 q -14 -12 -30 -12 q -18 0 -30 12 l -459 460 l -215 -215 q -12 -12 -30 -12 q -17 0 -29 12 l -80 80 l 612 632 l 77 -77 q 2 -2 4 -10 q 2 -7 2 -21 q 0 -27 -7 -45 q -8 -18 -11 -21 l -215 -215 z"></path></svg>
