<svg height="100%" width="100%" viewBox="0,0,2048,2048" focusable="false"><path type="path" class="OfficeIconColors_HighContrast" d="M 2048 1536 v 512 h -2048 v -512 m 832 -128 h -704 l 352 -235 l 59 -241 l 115 -113 l -4 -4 l 739 -739 q 38 -38 85 -57 q 46 -18 96 -18 q 50 0 97 18 q 46 19 84 57 l 61 61 q 37 38 56 84 q 18 47 18 97 q 0 49 -18 96 q -18 47 -56 85 l -739 739 l -7 -7 l -234 60 m -1 -476 l 242 242 l 648 -649 q 38 -38 38 -90 q 0 -26 -10 -50 q -10 -23 -28 -41 l -60 -60 q -18 -18 -42 -27 q -24 -9 -49 -9 q -25 0 -48 9 q -24 9 -42 27 z"></path><path type="path" class="OfficeIconColors_m227" d="M 1984 1984 h -1920 v -384 h 1920 z"></path><path type="path" class="OfficeIconColors_m21" d="M 2048 1536 v 512 h -2048 v -512 m 1920 128 h -1792 v 256 h 1792 z"></path><path type="path" class="OfficeIconColors_DynamicColor" d="M 2048 1536 v 512 h -2048 v -512 z"></path><path type="path" class="OfficeIconColors_m23" d="M 128 1408 l 352 -235 l 59 -241 l 121 -119 l 415 415 l -243 63 v 117 z"></path><path type="path" class="OfficeIconColors_m20" d="M 1766 182 q 57 59 57 136 q 0 37 -14 71 q -14 35 -43 64 l -693 694 l -332 -331 l 694 -695 q 28 -28 63 -42 q 35 -14 72 -14 q 37 0 73 14 q 35 14 63 42 z"></path><path type="path" class="OfficeIconColors_m22" d="M 1073 1238 l -423 -423 l 739 -739 q 38 -38 85 -57 q 46 -18 96 -18 q 50 0 97 18 q 46 19 84 57 l 61 61 q 37 38 56 84 q 18 47 18 97 q 0 50 -18 96 q -19 47 -56 85 m -981 316 l 242 242 l 648 -649 q 38 -38 38 -90 q 0 -26 -10 -50 q -10 -23 -28 -41 l -60 -60 q -18 -18 -42 -27 q -24 -9 -49 -9 q -25 0 -48 9 q -24 9 -42 27 z"></path></svg>
