<svg height="100%" width="100%" viewBox="0,0,2048,2048" focusable="false"><path type="path" class="OfficeIconColors_HighContrast" d="M 1920 256 h -1792 v -128 h 1792 m 0 640 h -768 v -128 h 768 m 0 640 h -768 v -128 h 768 m 0 640 h -1792 v -128 h 1792 m -1344 -384 l -91 -91 l 166 -165 h -523 v -128 h 523 l -166 -165 l 91 -91 l 320 320 z"></path><path type="path" class="OfficeIconColors_m22" d="M 1920 256 h -1792 v -128 h 1792 m 0 640 h -768 v -128 h 768 m 0 640 h -768 v -128 h 768 m 0 640 h -1792 v -128 h 1792 z"></path><path type="path" class="OfficeIconColors_m24" d="M 576 1280 l -91 -91 l 166 -165 h -523 v -128 h 523 l -166 -165 l 91 -91 l 320 320 z"></path></svg>
