<svg height="100%" width="100%" viewBox="0,0,2048,2048" focusable="false"><path type="path" class="OfficeIconColors_HighContrast" d="M 91 1509 l 165 166 v -523 h 128 v 523 l 165 -166 l 91 91 l -320 320 l -320 -320 m 549 -1061 l -165 -166 v 523 h -128 v -523 l -165 166 l -91 -91 l 320 -320 l 320 320 m 256 -192 v -128 h 1152 v 128 m -1152 512 v -128 h 1152 v 128 m -1152 512 v -128 h 1152 v 128 m -1152 512 v -128 h 1152 v 128 z"></path><path type="path" class="OfficeIconColors_m24" d="M 0 1600 l 91 -91 l 165 166 v -523 h 128 v 523 l 165 -166 l 91 91 l -320 320 m 320 -1472 l -91 91 l -165 -166 v 523 h -128 v -523 l -165 166 l -91 -91 l 320 -320 z"></path><path type="path" class="OfficeIconColors_m22" d="M 2048 256 h -1152 v -128 h 1152 m 0 640 h -1152 v -128 h 1152 m 0 640 h -1152 v -128 h 1152 m 0 640 h -1152 v -128 h 1152 z"></path></svg>
