<svg height="100%" width="100%" viewBox="0,0,2048,2048" focusable="false"><path type="path" class="OfficeIconColors_HighContrast" d="M 1920 256 h -1280 v -128 h 1280 m 0 896 h -1280 v -128 h 1280 m 0 896 h -1280 v -128 h 1280 m -1664 -1664 v 512 h -110 v -388 q -17 16 -46 27 q -30 12 -60 17 v -93 q 83 -24 149 -75 m -68 1188 h 214 v 92 h -335 v -38 q 0 -31 8 -57 q 7 -26 23 -50 q 16 -23 42 -46 q 25 -23 60 -48 q 49 -35 69 -62 q 20 -26 20 -57 q 0 -66 -74 -66 q -63 0 -124 52 v -97 q 65 -43 148 -43 q 77 0 121 38 q 43 39 43 105 q 0 30 -7 54 q -7 24 -22 45 q -16 22 -40 43 q -25 21 -60 45 q -26 18 -42 31 q -17 14 -27 24 q -10 11 -13 19 q -4 9 -4 16 m 211 710 q 0 70 -51 110 q -51 40 -140 40 q -78 0 -125 -25 v -95 q 51 37 116 37 q 43 0 66 -19 q 22 -18 22 -50 q 0 -32 -28 -51 q -28 -18 -80 -18 h -44 v -83 h 41 q 97 0 97 -64 q 0 -61 -75 -61 q -50 0 -96 32 v -89 q 52 -26 121 -26 q 71 0 116 32 q 45 32 45 91 q 0 97 -99 122 v 1 q 51 6 83 37 q 31 32 31 79 z"></path><path type="path" class="OfficeIconColors_m22" d="M 1920 256 h -1280 v -128 h 1280 m 0 896 h -1280 v -128 h 1280 m 0 896 h -1280 v -128 h 1280 z"></path><path type="path" class="OfficeIconColors_m24" d="M 256 0 v 512 h -110 v -388 q -17 16 -46 27 q -30 12 -60 17 v -93 q 83 -24 149 -75 m -68 1188 h 214 v 92 h -335 v -38 q 0 -31 8 -57 q 7 -26 23 -50 q 16 -23 42 -46 q 25 -23 60 -48 q 49 -35 69 -62 q 20 -26 20 -57 q 0 -66 -74 -66 q -63 0 -124 52 v -97 q 65 -43 148 -43 q 77 0 121 38 q 43 39 43 105 q 0 30 -7 54 q -7 24 -22 45 q -16 22 -40 43 q -25 21 -60 45 q -26 18 -42 31 q -17 14 -27 24 q -10 11 -13 19 q -4 9 -4 16 m 211 710 q 0 70 -51 110 q -51 40 -140 40 q -78 0 -125 -25 v -95 q 51 37 116 37 q 43 0 66 -19 q 22 -18 22 -50 q 0 -32 -28 -51 q -28 -18 -80 -18 h -44 v -83 h 41 q 97 0 97 -64 q 0 -61 -75 -61 q -50 0 -96 32 v -89 q 52 -26 121 -26 q 71 0 116 32 q 45 32 45 91 q 0 97 -99 122 v 1 q 51 6 83 37 q 31 32 31 79 z"></path></svg>
