<svg height="100%" width="100%" viewBox="0,0,2048,2048" focusable="false"><path type="path" class="OfficeIconColors_HighContrast" d="M 1920 256 h -1280 v -128 h 1280 m 0 896 h -896 v -128 h 896 m 0 896 h -512 v -128 h 512 m -768 -201 q 0 24 -17 39 q -17 16 -45 16 q -27 0 -44 -16 q -17 -16 -17 -39 q 0 -24 18 -40 q 17 -15 43 -15 q 25 0 44 14 q 18 15 18 41 m -9 585 h -107 v -384 h 107 m -484 -385 v -67 h -2 q -51 79 -144 79 q -72 0 -113 -39 q -42 -39 -42 -106 q 0 -69 41 -110 q 41 -41 119 -52 l 142 -19 q 0 -100 -92 -100 q -45 0 -87 15 q -43 15 -75 40 v -98 q 12 -8 33 -16 q 21 -7 46 -13 q 24 -6 49 -10 q 25 -4 45 -4 q 189 0 189 191 v 309 m -302 -144 q 0 31 23 50 q 23 19 58 19 q 49 0 81 -34 q 32 -33 32 -85 v -43 l -105 13 q -51 8 -70 25 q -19 18 -19 55 m -210 -1135 v 512 h -110 v -388 q -17 16 -46 27 q -30 12 -60 17 v -93 q 83 -24 149 -75 z"></path><path type="path" class="OfficeIconColors_m22" d="M 1920 256 h -1280 v -128 h 1280 m 0 896 h -896 v -128 h 896 m 0 896 h -512 v -128 h 512 z"></path><path type="path" class="OfficeIconColors_m24" d="M 1152 1463 q 0 24 -17 39 q -17 16 -45 16 q -27 0 -44 -16 q -17 -16 -17 -39 q 0 -24 18 -40 q 17 -15 43 -15 q 24 0 43 14 q 19 15 19 41 m -9 585 h -107 v -384 h 107 m -484 -385 v -67 h -2 q -51 79 -144 79 q -72 0 -113 -39 q -42 -39 -42 -106 q 0 -69 41 -110 q 41 -41 119 -52 l 142 -19 q 0 -100 -92 -100 q -45 0 -87 15 q -43 15 -75 40 v -98 q 12 -8 33 -16 q 21 -7 46 -13 q 24 -6 49 -10 q 25 -4 45 -4 q 189 0 189 191 v 309 m -302 -144 q 0 31 23 50 q 23 19 58 19 q 49 0 81 -34 q 32 -33 32 -85 v -43 l -105 13 q -51 8 -70 25 q -19 18 -19 55 m -210 -1135 v 512 h -110 v -388 q -17 16 -46 27 q -30 12 -60 17 v -93 q 83 -24 149 -75 z"></path></svg>
