<svg height="100%" width="100%" viewBox="0,0,2048,2048" focusable="false"><path type="path" class="OfficeIconColors_HighContrast" d="M 1664 256 v 128 h -128 q -27 0 -50 10 q -23 10 -40 27 q -18 18 -28 41 q -10 23 -10 50 v 1280 h -128 v -1408 h -128 q -27 0 -50 10 q -23 10 -40 27 q -18 18 -28 41 q -10 23 -10 50 v 1280 h -128 v -640 q -128 0 -224 -34 q -96 -33 -160 -93 q -64 -59 -96 -141 q -32 -82 -32 -180 q 0 -96 39 -178 q 39 -82 111 -142 q 72 -60 175 -94 q 102 -34 230 -34 z"></path><path type="path" class="OfficeIconColors_m22" d="M 1664 256 v 128 h -128 q -27 0 -50 10 q -23 10 -40 27 q -18 18 -28 41 q -10 23 -10 50 v 1280 h -128 v -1408 h -128 q -27 0 -50 10 q -23 10 -40 27 q -18 18 -28 41 q -10 23 -10 50 v 1280 h -128 v -640 q -128 0 -224 -34 q -96 -33 -160 -93 q -64 -59 -96 -141 q -32 -82 -32 -180 q 0 -96 39 -178 q 39 -82 111 -142 q 72 -60 175 -94 q 102 -34 230 -34 z"></path></svg>
