<svg height="100%" width="100%" viewBox="0,0,2048,2048" focusable="false"><path type="path" class="OfficeIconColors_HighContrast" d="M 410 1842 q 0 1 1 1 h 613 v 103 h -717 v -1639 h 466 q 9 -44 32 -82 q 23 -37 56 -65 q 33 -27 75 -43 q 41 -15 88 -15 q 46 0 88 15 q 42 16 75 43 q 33 28 56 65 q 23 38 32 82 h 466 v 410 h -103 v -307 h -204 v 307 h -820 v -307 h -204 m 307 204 h 614 v -204 h -153 v -52 q 0 -31 -12 -59 q -12 -28 -33 -49 q -21 -21 -49 -33 q -28 -12 -60 -12 q -32 0 -60 12 q -28 12 -49 33 q -21 21 -33 49 q -12 28 -12 59 v 52 h -153 m 1331 409 v 1229 h -922 v -1229 m 820 103 h -717 v 1024 h 717 z"></path><path type="path" class="OfficeIconColors_m20" d="M 1024 1894 h -666 v -1536 h 457 l 8 -41 q 7 -36 26 -66 q 18 -29 45 -51 q 26 -22 60 -34 q 33 -12 70 -12 q 41 0 75 13 q 34 14 60 37 q 25 24 42 55 q 17 32 25 67 l 7 32 h 457 v 359 h -666 z"></path><path type="path" class="OfficeIconColors_m212" d="M 666 512 h -154 v 1229 h 512 v 153 h -666 v -1536 h 308 m 1024 0 v 359 h -154 v -205 h -154 v -154 z"></path><path type="path" class="OfficeIconColors_m211" d="M 1024 1946 h -717 v -1639 h 359 v 103 h -256 v 1432 q 0 1 1 1 h 613 m 614 -1433 h -256 v -103 h 359 v 410 h -103 z"></path><path type="path" class="OfficeIconColors_m23" d="M 1434 307 v 410 h -820 v -410 h 159 q 9 -44 32 -82 q 23 -37 56 -65 q 33 -27 75 -43 q 41 -15 88 -15 q 46 0 88 15 q 42 16 75 43 q 33 28 56 65 q 23 38 32 82 m 56 307 v -204 h -153 v -52 q 0 -31 -12 -59 q -12 -28 -33 -49 q -21 -21 -49 -33 q -28 -12 -60 -12 q -32 0 -60 12 q -28 12 -49 33 q -21 21 -33 49 q -12 28 -12 59 v 52 h -153 v 204 z"></path><path type="path" class="OfficeIconColors_m20" d="M 1178 1997 v -1127 h 819 v 1127 z"></path><path type="path" class="OfficeIconColors_m22" d="M 2048 819 v 1229 h -922 v -1229 m 820 103 h -717 v 1024 h 717 z"></path></svg>
