<svg height="100%" width="100%" viewBox="0,0,2048,2048" focusable="false"><path type="path" class="OfficeIconColors_HighContrast" d="M 1465 1664 h -166 l -142 -376 h -530 l -134 376 h -166 l 489 -1280 h 155 m 136 768 l -194 -526 q -3 -10 -8 -32 q -5 -21 -12 -55 h -4 q -4 29 -9 50 q -5 22 -10 37 l -193 526 m 1368 -933 l -320 319 l -317 -319 l 91 -91 l 226 230 l 230 -230 z"></path><path type="path" class="OfficeIconColors_m22" d="M 1465 1664 h -166 l -142 -376 h -530 l -134 376 h -166 l 489 -1280 h 155 m 136 768 l -194 -526 q -3 -10 -8 -32 q -5 -21 -12 -55 h -4 q -4 29 -9 50 q -5 22 -10 37 l -193 526 z"></path><path type="path" class="OfficeIconColors_m24" d="M 2045 219 l -320 319 l -317 -319 l 91 -91 l 226 230 l 230 -230 z"></path></svg>
