<svg height="100%" width="100%" viewBox="0,0,2048,2048" focusable="false"><path type="path" class="OfficeIconColors_HighContrast" d="M 2048 1152 v 128 h -267 q -11 88 -42 159 q -32 71 -81 121 q -49 50 -114 77 q -65 27 -142 27 q -180 0 -268 -157 h -4 v 137 h -106 v -364 h -128 v 364 h -106 v -151 h -4 q -41 81 -113 126 q -72 45 -163 45 q -60 0 -109 -18 q -49 -17 -84 -49 q -35 -31 -54 -76 q -19 -45 -19 -100 q 0 -82 36 -141 h -280 v -128 h 506 q 6 -1 13 -2 q 6 -1 12 -2 l 259 -38 q 0 -245 -191 -245 q -147 0 -276 109 v -116 q 26 -18 60 -34 q 34 -16 72 -27 q 38 -11 78 -18 q 39 -6 75 -6 q 143 0 216 80 q 72 80 72 238 v 61 h 128 v -768 h 106 v 572 h 4 q 46 -88 126 -136 q 79 -47 180 -47 q 76 0 138 26 q 62 27 107 76 q 44 50 70 120 q 26 70 30 157 m -995 132 v -4 h -378 q -29 22 -44 54 q -15 32 -15 81 q 0 35 13 64 q 12 29 36 50 q 23 21 56 32 q 32 12 72 12 q 56 0 104 -22 q 47 -22 82 -61 q 35 -38 55 -91 q 19 -53 19 -115 m 376 -265 q -31 63 -35 133 h 544 q -4 -66 -24 -119 q -20 -53 -53 -91 q -33 -37 -78 -57 q -46 -20 -102 -20 q -84 0 -150 41 q -66 41 -102 113 m 435 450 q 55 -76 70 -189 h -541 v 10 q 0 58 20 109 q 20 52 56 90 q 35 39 84 61 q 49 23 108 23 q 128 0 203 -104 z"></path><path type="path" class="OfficeIconColors_m22" d="M 2048 1152 v 128 h -267 q -11 88 -42 159 q -32 71 -81 121 q -49 50 -114 77 q -65 27 -142 27 q -180 0 -268 -157 h -4 v 137 h -106 v -364 h -128 v 364 h -106 v -151 h -4 q -41 81 -113 126 q -72 45 -163 45 q -60 0 -109 -18 q -49 -17 -84 -49 q -35 -31 -54 -76 q -19 -45 -19 -100 q 0 -82 36 -141 h -280 v -128 h 506 q 6 -1 13 -2 q 6 -1 12 -2 l 259 -38 q 0 -245 -191 -245 q -147 0 -276 109 v -116 q 26 -18 60 -34 q 34 -16 72 -27 q 38 -11 78 -18 q 39 -6 75 -6 q 143 0 216 80 q 72 80 72 238 v 61 h 128 v -768 h 106 v 572 h 4 q 46 -88 126 -136 q 79 -47 180 -47 q 76 0 138 26 q 62 27 107 76 q 44 50 70 120 q 26 70 30 157 m -995 132 v -4 h -378 q -29 22 -44 54 q -15 32 -15 81 q 0 35 13 64 q 12 29 36 50 q 23 21 56 32 q 32 12 72 12 q 56 0 104 -22 q 47 -22 82 -61 q 35 -38 55 -91 q 19 -53 19 -115 m 376 -265 q -31 63 -35 133 h 544 q -4 -66 -24 -119 q -20 -53 -53 -91 q -33 -37 -78 -57 q -46 -20 -102 -20 q -84 0 -150 41 q -66 41 -102 113 m 435 450 q 55 -76 70 -189 h -541 v 10 q 0 58 20 109 q 20 52 56 90 q 35 39 84 61 q 49 23 108 23 q 128 0 203 -104 z"></path></svg>
