<svg height="100%" width="100%" viewBox="0,0,2048,2048" focusable="false"><path type="path" class="OfficeIconColors_HighContrast" d="M 1141 1086 l 298 450 h -236 l -155 -270 l -38 -70 h -3 l -19 37 l -178 303 h -234 l 307 -443 l -289 -453 h 237 l 152 285 q 11 21 20 39 q 8 18 14 33 h 4 q 2 -6 2 -7 q 0 -1 3 -8 q 3 -7 13 -24 q 9 -17 31 -55 q 21 -38 57 -101 q 35 -63 91 -162 h 223 m 490 0 h -395 v -49 q 0 -27 7 -53 q 7 -26 24 -53 q 17 -27 46 -56 q 28 -29 71 -63 q 40 -31 66 -55 q 26 -23 41 -44 q 15 -20 21 -40 q 6 -20 6 -43 q 0 -48 -27 -75 q -28 -26 -76 -26 q -39 0 -79 18 q -41 19 -76 54 v -97 q 40 -30 80 -44 q 40 -14 94 -14 q 88 0 138 44 q 49 45 49 129 q 0 41 -8 71 q -8 30 -28 58 q -21 29 -56 60 q -36 32 -91 75 q -49 38 -70 64 q -21 27 -21 50 v 2 h 284 z"></path><path type="path" class="OfficeIconColors_m22" d="M 1141 1086 l 298 450 h -236 l -155 -270 l -38 -70 h -3 l -19 37 l -178 303 h -234 l 307 -443 l -289 -453 h 237 l 152 285 q 11 21 20 39 q 8 18 14 33 h 4 q 2 -6 2 -7 q 0 -1 3 -8 q 3 -7 13 -24 q 9 -17 31 -55 q 21 -38 57 -101 q 35 -63 91 -162 h 223 z"></path><path type="path" class="OfficeIconColors_m24" d="M 1931 640 h -395 v -49 q 0 -27 7 -53 q 7 -26 24 -53 q 17 -27 46 -56 q 28 -29 71 -63 q 40 -31 66 -55 q 26 -23 41 -44 q 15 -20 21 -40 q 6 -20 6 -43 q 0 -48 -27 -75 q -28 -26 -76 -26 q -39 0 -79 18 q -41 19 -76 54 v -97 q 40 -30 80 -44 q 40 -14 94 -14 q 88 0 138 44 q 49 45 49 129 q 0 41 -8 71 q -8 30 -28 58 q -21 29 -56 60 q -36 32 -91 75 q -49 38 -70 64 q -21 27 -21 50 v 2 h 284 z"></path></svg>
