<svg height="100%" width="100%" viewBox="0,0,2048,2048" focusable="false"><path type="path" class="OfficeIconColors_HighContrast" d="M 1113 1664 h -156 l -127 -384 h -511 l -120 384 h -156 l 460 -1248 h 146 m 134 736 l -189 -509 q -7 -16 -19 -81 h -3 q -3 26 -8 46 q -6 21 -11 35 l -187 509 m 1682 491 h -137 v -133 h -3 q -90 154 -263 154 q -61 0 -111 -17 q -50 -17 -86 -50 q -36 -32 -55 -78 q -20 -46 -20 -103 q 0 -237 282 -278 l 256 -36 q 0 -217 -176 -217 q -154 0 -278 104 v -140 q 18 -13 53 -28 q 35 -14 77 -26 q 41 -12 84 -20 q 43 -7 76 -7 q 301 0 301 319 m -137 124 l -207 29 q -53 8 -89 19 q -36 12 -59 31 q -23 19 -33 47 q -10 28 -10 68 q 0 33 13 59 q 12 27 34 45 q 22 18 52 28 q 30 10 65 10 q 50 0 93 -19 q 43 -19 75 -53 q 31 -33 49 -79 q 17 -46 17 -100 z"></path><path type="path" class="OfficeIconColors_m22" d="M 1113 1664 h -156 l -127 -384 h -511 l -120 384 h -156 l 460 -1248 h 146 m 134 736 l -189 -509 q -7 -16 -19 -81 h -3 q -3 26 -8 46 q -6 21 -11 35 l -187 509 m 1682 491 h -137 v -133 h -3 q -90 154 -263 154 q -61 0 -111 -17 q -50 -17 -86 -50 q -36 -32 -55 -78 q -20 -46 -20 -103 q 0 -237 282 -278 l 256 -36 q 0 -217 -176 -217 q -154 0 -278 104 v -140 q 18 -13 53 -28 q 35 -14 77 -26 q 41 -12 84 -20 q 43 -7 76 -7 q 301 0 301 319 m -137 124 l -207 29 q -53 8 -89 19 q -36 12 -59 31 q -23 19 -33 47 q -10 28 -10 68 q 0 33 13 59 q 12 27 34 45 q 22 18 52 28 q 30 10 65 10 q 50 0 93 -19 q 43 -19 75 -53 q 31 -33 49 -79 q 17 -46 17 -100 z"></path></svg>
